<svg viewBox="0 0 256 256" xmlns="http://www.w3.org/2000/svg"><path d="m222.30566 74.73389c-.01636-.03028-.02417-.063-.04126-.09278-.00879-.01513-.02112-.02685-.03-.042a11.99378 11.99378 0 0 0 -4.44262-4.37842l-83.999-47.478a12.062 12.062 0 0 0 -11.80957 0l-84.001 47.47851a11.99238 11.99238 0 0 0 -4.46472 4.41553c-.00573.01025-.014.01807-.01965.02832-.01538.02783-.02222.05762-.037.08545a11.98534 11.98534 0 0 0 -1.57339 5.9175v94.664a12.01912 12.01912 0 0 0 6.0957 10.44727l83.999 47.478a11.98345 11.98345 0 0 0 5.63257 1.52686c.07825.00537.15222.0249.23169.02588l.042.00049c.082 0 .1587-.01953.23951-.02442a11.97583 11.97583 0 0 0 5.66382-1.52881l84.001-47.47851a12.01884 12.01884 0 0 0 6.09473-10.44678v-94.66398a11.98627 11.98627 0 0 0 -1.58181-5.93411zm-96.38599-45.02689a4.02111 4.02111 0 0 1 3.93653 0l81.93823 46.313-34.79468 19.896-84.5924-47.26756zm3.00684 93.69824-84.875-47.42524 40.20239-22.72316 84.6401 47.29443zm-87.00684 55.4097a4.00659 4.00659 0 0 1 -2.03222-3.48291v-92.51465l85.037 47.51612-.97925 94.84423zm171.93653-.00049-81.90943 46.29639.97852-94.77686 40.09692-22.92773v41.10449a4 4 0 0 0 8 0v-45.6792l34.86524-19.93654v92.437a4.00631 4.00631 0 0 1 -2.03125 3.48245z"/></svg>